HIERARCHY
ROOT root
{
	OFFSET 0.000000 0.000000 0.000000
	CHANNELS 6 Xposition Yposition Zposition Zrotation Yrotation Xrotation
	JOINT lhip
	{
		OFFSET 0.058581 -0.082280 -0.017664
		CHANNELS 3 Zrotation Yrotation Xrotation
		JOINT lknee
		{
			OFFSET 0.043451 -0.386469 0.008037
			CHANNELS 3 Zrotation Yrotation Xrotation
			JOINT lankle
			{
				OFFSET -0.014790 -0.426874 -0.037428
				CHANNELS 3 Zrotation Yrotation Xrotation
				JOINT ltoe
				{
					OFFSET 0.041054 -0.060286 0.122042
					CHANNELS 3 Zrotation Yrotation Xrotation
					End Site
					{
						OFFSET 0.000000 0.000000 0.000000
					}
				}
			}
		}
	}
	JOINT rhip
	{
		OFFSET -0.060310 -0.090513 -0.013543
		CHANNELS 3 Zrotation Yrotation Xrotation
		JOINT rknee
		{
			OFFSET -0.043257 -0.383688 -0.004843
			CHANNELS 3 Zrotation Yrotation Xrotation
			JOINT rankle
			{
				OFFSET 0.019056 -0.420046 -0.034562
				CHANNELS 3 Zrotation Yrotation Xrotation
				JOINT rtoe
				{
					OFFSET -0.034840 -0.062106 0.130323
					CHANNELS 3 Zrotation Yrotation Xrotation
					End Site
					{
						OFFSET 0.000000 0.000000 0.000000
					}
				}
			}
		}
	}
	JOINT lowerback
	{
		OFFSET 0.004439 0.124404 -0.038385
		CHANNELS 3 Zrotation Yrotation Xrotation
		JOINT upperback
		{
			OFFSET 0.004488 0.137956 0.026820
			CHANNELS 3 Zrotation Yrotation Xrotation
			JOINT chest
			{
				OFFSET -0.002265 0.056032 0.002855
				CHANNELS 3 Zrotation Yrotation Xrotation
				JOINT lowerneck
				{
					OFFSET -0.013390 0.211636 -0.033468
					CHANNELS 3 Zrotation Yrotation Xrotation
					JOINT upperneck
					{
						OFFSET 0.010113 0.088937 0.050410
						CHANNELS 3 Zrotation Yrotation Xrotation
						End Site
						{
							OFFSET 0.000000 0.000000 0.000000
						}
					}
				}
				JOINT lclavicle
				{
					OFFSET 0.071702 0.114000 -0.018898
					CHANNELS 3 Zrotation Yrotation Xrotation
					JOINT lshoulder
					{
						OFFSET 0.122921 0.045205 -0.019046
						CHANNELS 3 Zrotation Yrotation Xrotation
						JOINT lelbow
						{
							OFFSET 0.255332 -0.015649 -0.022946
							CHANNELS 3 Zrotation Yrotation Xrotation
							JOINT lwrist
							{
								OFFSET 0.265709 0.012698 -0.007375
								CHANNELS 3 Zrotation Yrotation Xrotation
								End Site
								{
									OFFSET 0.000000 0.000000 0.000000
								}
							}
						}
					}
				}
				JOINT rclavicle
				{
					OFFSET -0.082954 0.112472 -0.023707
					CHANNELS 3 Zrotation Yrotation Xrotation
					JOINT rshoulder
					{
						OFFSET -0.113228 0.046853 -0.008472
						CHANNELS 3 Zrotation Yrotation Xrotation
						JOINT relbow
						{
							OFFSET -0.260127 -0.014369 -0.031269
							CHANNELS 3 Zrotation Yrotation Xrotation
							JOINT rwrist
							{
								OFFSET -0.269108 0.006794 -0.006027
								CHANNELS 3 Zrotation Yrotation Xrotation
								End Site
								{
									OFFSET 0.000000 0.000000 0.000000
								}
							}
						}
					}
				}
			}
		}
	}
}
MOTION
Frames: 10
Frame Time: 0.033333
1.052911 0.814186 1.208146 76.337532 -1.080501 94.321401 1.805738 -4.452157 -13.450949 -3.796914 3.582707 25.148803 -4.438638 8.052980 32.949298 0.000000 -0.000000 0.000000 -0.668364 -2.107934 -14.037351 0.004433 -5.783849 17.838568 11.523899 -5.481313 41.612853 0.000000 -0.000000 0.000000 -5.803505 2.628685 5.625320 5.361300 -4.056508 -2.314416 1.438053 -2.560096 -1.238339 9.064316 -36.811010 -10.751648 13.273394 -33.309935 -7.884419 -23.431626 1.343619 7.601343 -50.379418 3.450669 14.234354 -14.416141 -24.736880 31.023879 -15.709642 -2.739678 6.747666 18.488930 14.437620 -0.177305 54.270470 15.710436 30.189978 50.939572 68.001052 72.524829 2.654448 11.487029 -14.909778 
1.047167 0.822647 1.211442 53.792892 0.062116 94.815603 2.584600 -4.529918 -12.943008 -5.010012 -1.124132 22.396181 -7.629959 6.378232 34.155692 0.000000 -0.000000 0.000000 -0.498180 -2.057879 -12.932989 -1.174896 -9.701260 16.812734 9.025964 -7.316839 40.296687 0.000000 -0.000000 0.000000 -4.949865 3.278817 6.145358 4.171830 -2.757902 -0.231073 1.820416 -1.381968 -2.176318 9.128796 -35.893302 -9.537220 15.285237 -32.486667 -9.743416 -21.852097 3.740522 7.637323 -50.354829 7.522132 13.766707 -19.644320 -27.691325 33.772119 -16.013531 -3.484144 2.429882 19.048099 15.454523 0.322934 57.173213 15.482538 30.032705 46.180936 66.756911 65.934334 1.141244 12.067872 -13.217277 
1.045553 0.830124 1.204216 32.778345 1.380299 95.803886 2.684650 -5.888921 -13.473915 -4.600355 -4.529024 19.382832 -9.884309 5.320579 32.558633 0.000000 -0.000000 0.000000 -0.883565 -3.798559 -12.675434 -1.887244 -13.214181 17.438316 6.128397 -9.069773 37.457934 0.000000 -0.000000 0.000000 -4.707045 4.384733 5.909952 3.744073 -2.321898 0.860078 1.827916 -0.429468 -3.014423 8.972404 -34.483672 -8.666763 15.745511 -31.965503 -11.078813 -21.024250 5.299905 8.866715 -48.542991 11.711144 13.912676 -24.363886 -29.562865 36.453880 -18.428278 -6.008697 -1.897631 19.949956 15.285936 1.887158 56.960070 14.863010 28.300729 39.652605 66.349697 57.846931 1.363600 11.823612 -11.745261 
1.042029 0.838274 1.185440 13.011954 3.410659 96.857783 3.910286 -7.657207 -14.624796 -2.616351 -8.231466 14.898296 -8.970705 4.732687 28.324929 0.000000 -0.000000 0.000000 -0.815840 -6.733905 -14.126158 -2.911803 -16.270958 21.105541 2.211511 -12.348684 32.601271 0.000000 -0.000000 0.000000 -4.460792 6.044119 5.661221 3.443806 -1.609958 0.854207 1.471469 0.095035 -3.017530 8.737733 -29.903578 -9.128465 14.917318 -32.019904 -10.626857 -20.170411 6.312325 9.628135 -45.501017 14.254419 14.357895 -28.283774 -27.408518 41.303370 -22.619778 -8.025734 -4.247432 20.995981 14.266273 3.009336 55.167335 14.649517 25.445750 29.312516 64.689418 46.706737 -0.170620 11.743985 -10.053980 
1.038536 0.847710 1.155282 -5.529053 5.604471 96.850442 6.041048 -8.538333 -15.285133 -0.521054 -12.363667 11.286258 -8.808956 3.756878 23.580467 0.000000 -0.000000 0.000000 -0.973197 -9.183128 -14.971672 -3.246223 -17.394368 24.275537 1.004439 -14.097385 29.669500 0.000000 -0.000000 0.000000 -5.073059 7.564854 5.812414 3.397021 -0.950709 0.670127 1.489784 0.451902 -2.595057 9.804764 -23.765756 -10.858564 12.756459 -30.918828 -8.983445 -20.389170 6.805086 9.333876 -42.236571 15.683460 14.679244 -28.616055 -21.840616 41.698601 -24.868047 -8.218725 -2.859194 22.768834 12.931421 2.495270 51.248402 15.389116 22.626594 18.587207 59.839453 34.986109 0.191768 11.100569 -8.067068 
1.036066 0.856708 1.114530 -22.905608 7.817485 95.947215 8.830427 -8.832981 -16.500473 -2.289358 -16.065735 13.491642 -8.514250 3.476201 24.798001 0.000000 -0.000000 0.000000 -1.389271 -9.320897 -15.919441 -1.952093 -16.608440 27.932581 2.380672 -13.360346 28.660770 0.000000 -0.000000 0.000000 -5.915419 8.404770 5.884631 3.475141 -0.030230 1.066021 1.542037 0.922550 -2.806674 11.068633 -18.045800 -11.745116 10.943720 -27.925891 -7.194567 -21.314330 6.671882 8.587904 -38.841786 17.561465 13.920590 -25.219361 -16.961015 39.543162 -27.181230 -4.716013 3.668365 23.785674 12.820803 2.712704 47.331244 16.417317 19.062863 7.894585 54.362766 23.175089 1.521447 10.526873 -4.333781 
1.036192 0.864961 1.063976 -38.961164 9.834524 93.486510 10.379835 -9.173495 -17.758169 -5.207492 -15.574130 24.255288 -4.469152 8.754958 16.011936 0.000000 -0.000000 0.000000 -1.716720 -8.456967 -16.827220 0.749740 -15.317956 33.067309 2.527201 -14.046378 25.766636 0.000000 -0.000000 0.000000 -5.836420 8.681385 7.336208 3.358915 0.917254 1.421277 1.483895 1.698964 -2.470978 11.889817 -13.224248 -13.523791 8.698404 -23.806139 -5.999164 -23.366205 5.800050 7.146211 -34.202451 19.091020 13.057197 -19.222920 -12.429649 33.790092 -20.044212 -5.223001 8.133945 25.334269 13.821497 2.943398 38.692617 17.012524 15.683226 4.367258 50.928836 18.766417 0.055849 10.174315 -7.116112 
1.036226 0.873371 1.005879 -52.340604 11.070153 90.167165 12.339718 -5.915055 -19.114202 -7.499491 -7.779182 39.655205 -0.379280 11.336475 -7.954843 0.000000 -0.000000 0.000000 -1.076198 -7.891338 -16.128397 3.511846 -13.143501 36.947856 5.713713 -11.491912 11.716014 0.000000 -0.000000 0.000000 -6.053442 9.152759 11.038347 3.561241 1.125639 0.026968 1.632884 2.398670 -1.033504 13.008557 -6.854620 -15.781634 5.681475 -21.911619 -5.224586 -23.514026 4.370605 4.015781 -29.776050 18.928472 10.461362 -13.661039 -8.044603 29.459136 -19.527273 -3.181745 15.524787 25.453383 14.017794 0.970645 32.755696 16.921505 12.422604 1.478668 49.126380 14.818111 -2.692604 9.123746 -8.310537 
1.043127 0.884480 0.951091 -60.818089 11.320027 89.491191 13.685477 -2.543504 -24.227763 -9.631232 -6.172885 51.846888 -0.729513 12.516800 -20.094321 0.000000 -0.000000 0.000000 0.025849 -7.501336 -17.296160 4.893132 -9.653092 38.848711 3.182328 -9.551913 -11.031215 0.000000 -0.000000 0.000000 -5.795446 8.753549 14.738029 3.015106 0.731024 -2.187132 1.498648 2.487829 0.355889 12.817027 -1.896973 -18.041323 4.686162 -20.033773 -6.418047 -21.683989 2.939282 0.851604 -25.420355 15.550852 8.176293 -8.475813 -8.988385 25.555949 -18.256403 1.234732 23.058459 23.449711 12.882760 -1.430285 29.842717 17.530202 7.175491 -4.251583 47.475858 9.693399 10.708878 6.670572 -4.679260 
1.053902 0.891297 0.908959 -66.397083 10.672061 90.097971 13.633817 -2.270916 -29.084189 -10.018137 -2.800357 59.705256 -0.280766 15.991056 -29.442485 0.000000 -0.000000 0.000000 0.850397 -5.955621 -20.636459 5.508417 -5.066104 40.851794 1.218293 -12.183870 -27.406600 0.000000 -0.000000 0.000000 -5.583937 8.615240 17.402640 2.558722 -0.137048 -3.584019 1.396858 1.980406 1.221078 11.556998 1.122562 -19.955574 4.690522 -17.840926 -8.788699 -19.636416 0.547975 -0.704966 -22.009523 10.979182 4.793922 -5.577257 -14.057796 16.552604 -12.000987 0.332725 15.084123 21.886066 13.099650 -1.591109 26.067882 16.131928 4.055202 -10.401066 45.943691 1.908433 5.730010 6.370466 -6.159761 
